<svg width="32" height="26" viewBox="0 0 32 26" fill="none" xmlns="http://www.w3.org/2000/svg">
<path d="M28.49 19.63C28.357 19.4981 28.1773 19.4241 27.99 19.4241C27.8027 19.4241 27.623 19.4981 27.49 19.63L26.79 20.33L26.09 19.63C25.9539 19.5165 25.7803 19.458 25.6032 19.466C25.4262 19.474 25.2585 19.5479 25.1332 19.6732C25.0079 19.7985 24.934 19.9662 24.926 20.1432C24.918 20.3203 24.9765 20.4939 25.09 20.63L25.79 21.33L25.09 22.03C25.0142 22.0932 24.9525 22.1714 24.9087 22.2598C24.8648 22.3482 24.8399 22.4447 24.8354 22.5432C24.831 22.6418 24.8471 22.7402 24.8828 22.8321C24.9185 22.9241 24.9729 23.0076 25.0427 23.0773C25.1124 23.1471 25.1959 23.2015 25.2879 23.2372C25.3798 23.2729 25.4782 23.289 25.5768 23.2846C25.6753 23.2801 25.7718 23.2552 25.8602 23.2113C25.9486 23.1675 26.0268 23.1058 26.09 23.03L26.79 22.33L27.49 23.03C27.5532 23.1058 27.6314 23.1675 27.7198 23.2113C27.8082 23.2552 27.9047 23.2801 28.0032 23.2846C28.1018 23.289 28.2001 23.2729 28.2921 23.2372C28.3841 23.2015 28.4676 23.1471 28.5373 23.0773C28.6071 23.0076 28.6615 22.9241 28.6972 22.8321C28.7329 22.7402 28.749 22.6418 28.7445 22.5432C28.7401 22.4447 28.7152 22.3482 28.6713 22.2598C28.6275 22.1714 28.5657 22.0932 28.49 22.03L27.79 21.33L28.49 20.63C28.6219 20.497 28.6959 20.3173 28.6959 20.13C28.6959 19.9427 28.6219 19.763 28.49 19.63Z" fill="black"/>
<path d="M28.66 17.68V4.55C28.6603 4.03148 28.4592 3.5331 28.0992 3.15997C27.7391 2.78685 27.2482 2.56815 26.73 2.55H3.82999C3.31179 2.56815 2.82088 2.78685 2.46082 3.15997C2.10075 3.5331 1.89968 4.03148 1.89999 4.55V21.45C1.89968 21.9685 2.10075 22.4669 2.46082 22.84C2.82088 23.2132 3.31179 23.4319 3.82999 23.45H23.16C23.4921 23.9948 23.9454 24.4558 24.4847 24.7969C25.0239 25.1381 25.6346 25.3503 26.2692 25.4171C26.9038 25.4838 27.5452 25.4034 28.1437 25.1819C28.7421 24.9605 29.2814 24.604 29.7197 24.1403C30.158 23.6765 30.4834 23.1179 30.6707 22.5079C30.858 21.8979 30.9021 21.2529 30.7996 20.6231C30.697 19.9933 30.4507 19.3956 30.0796 18.8765C29.7085 18.3574 29.2227 17.9308 28.66 17.63V17.68ZM3.82999 22.5C3.57709 22.4823 3.34037 22.3691 3.16772 22.1835C2.99507 21.9978 2.89937 21.7535 2.89999 21.5V4.55C2.89937 4.29648 2.99507 4.05219 3.16772 3.86654C3.34037 3.68089 3.57709 3.56775 3.82999 3.55H26.73C26.9829 3.56775 27.2196 3.68089 27.3923 3.86654C27.5649 4.05219 27.6606 4.29648 27.66 4.55V17.31C27.3334 17.2262 26.9972 17.1858 26.66 17.19C25.9868 17.1875 25.3236 17.3525 24.73 17.67L19.67 8.76C19.6603 8.7434 19.6464 8.72963 19.6298 8.72006C19.6131 8.71049 19.5942 8.70546 19.575 8.70546C19.5558 8.70546 19.5369 8.71049 19.5202 8.72006C19.5036 8.72963 19.4897 8.7434 19.48 8.76L13 18.69C12.9898 18.7044 12.9764 18.7162 12.9607 18.7244C12.945 18.7325 12.9276 18.7368 12.91 18.7368C12.8923 18.7368 12.8749 18.7325 12.8593 18.7244C12.8436 18.7162 12.8301 18.7044 12.82 18.69L9.36999 14.27C9.35984 14.2556 9.34637 14.2438 9.3307 14.2356C9.31504 14.2275 9.29765 14.2232 9.27999 14.2232C9.26234 14.2232 9.24495 14.2275 9.22928 14.2356C9.21362 14.2438 9.20014 14.2556 9.18999 14.27L3.91999 21.16C3.9064 21.1764 3.89788 21.1965 3.89546 21.2176C3.89303 21.2388 3.89682 21.2603 3.90636 21.2793C3.91589 21.2984 3.93076 21.3143 3.94916 21.3251C3.96756 21.3358 3.9887 21.341 4.00999 21.34H22.55C22.5504 21.7328 22.6076 22.1236 22.72 22.5H3.82999ZM26.7 24.5C26.2711 24.5024 25.8465 24.4146 25.4537 24.2424C25.0609 24.0701 24.7087 23.8172 24.42 23.5C24.1414 23.2113 23.9208 22.8718 23.77 22.5C23.6251 22.1304 23.5505 21.737 23.55 21.34C23.5501 20.7637 23.7087 20.1986 24.0086 19.7065C24.3084 19.2144 24.7379 18.8143 25.25 18.55C25.7887 18.2687 26.3972 18.1493 27.0023 18.2061C27.6073 18.2628 28.183 18.4934 28.66 18.87C29.1741 19.2802 29.5474 19.8405 29.7279 20.4729C29.9084 21.1053 29.887 21.7782 29.6669 22.3979C29.4468 23.0176 29.0387 23.5532 28.4997 23.93C27.9607 24.3068 27.3176 24.5061 26.66 24.5H26.7Z" fill="black"/>
<path d="M7.15999 10.53C8.31427 10.53 9.24999 9.59428 9.24999 8.44001C9.24999 7.28573 8.31427 6.35001 7.15999 6.35001C6.00572 6.35001 5.06999 7.28573 5.06999 8.44001C5.06999 9.59428 6.00572 10.53 7.15999 10.53Z" fill="black"/>
</svg>
